<svg width="230" height="302" viewBox="0 0 230 302" fill="none" xmlns="http://www.w3.org/2000/svg">
<path fill-rule="evenodd" clip-rule="evenodd" d="M84.719 211.189L92.5599 203.348C93.5402 202.367 94.0909 201.038 94.0909 199.651V91.5955C94.0909 90.2092 94.6416 88.8796 95.6219 87.8993L145.281 38.2402C147.322 36.1988 150.632 36.1988 152.674 38.2402L202.333 87.8993C203.313 88.8796 203.864 90.2092 203.864 91.5955V203.119C203.864 206.567 207.993 208.336 210.489 205.957L228.379 188.907C229.414 187.92 230 186.553 230 185.123V78.5777C230 77.1616 229.425 75.8062 228.408 74.8214L152.612 1.47095C150.586 -0.490307 147.369 -0.490322 145.342 1.47094L69.5467 74.8214C68.5291 75.8062 67.9545 77.1616 67.9545 78.5777V199.651C67.9545 201.038 68.5053 202.367 69.4856 203.348L77.3265 211.189C79.3679 213.23 82.6776 213.23 84.719 211.189ZM145.281 90.5129L137.44 98.3538C136.46 99.3342 135.909 100.664 135.909 102.05V210.106C135.909 211.492 135.358 212.822 134.378 213.802L84.719 263.461C82.6776 265.503 79.3679 265.503 77.3265 263.461L27.6674 213.802C26.6871 212.822 26.1364 211.492 26.1364 210.106V97.5873C26.1364 94.3 22.3338 92.4724 19.7668 94.526L1.96182 108.77C0.721835 109.762 0 111.264 0 112.852V223.124C0 224.54 0.574525 225.895 1.59212 226.88L77.3876 300.231C79.4142 302.192 82.6312 302.192 84.6579 300.231L160.453 226.88C161.471 225.895 162.045 224.54 162.045 223.124V102.05C162.045 100.664 161.495 99.3342 160.514 98.3538L152.674 90.5129C150.632 88.4716 147.322 88.4716 145.281 90.5129Z" fill="#5288FE"/>
</svg>
